<?xml version="1.0" standalone="no"?>
<!DOCTYPE svg PUBLIC "-//W3C//DTD SVG 20010904//EN"
 "http://www.w3.org/TR/2001/REC-SVG-20010904/DTD/svg10.dtd">
<svg version="1.0" xmlns="http://www.w3.org/2000/svg"
 width="219.000000pt" height="219.000000pt" viewBox="0 0 219.000000 219.000000"
 preserveAspectRatio="xMidYMid meet">
<metadata>
Created by potrace 1.14, written by Peter Selinger 2001-2017
</metadata>
<g transform="translate(0.000000,219.000000) scale(0.100000,-0.100000)"
fill="#000000" stroke="none">
<path d="M1399 1869 c-1 -2 -2 -361 -3 -796 -1 -538 2 -793 9 -793 11 0 13
1575 2 1587 -4 3 -8 4 -8 2z"/>
<path d="M848 1839 c-12 -13 -18 -35 -18 -69 l0 -50 36 0 c21 0 33 4 29 10 -3
6 -12 10 -20 10 -7 0 -15 7 -19 15 -4 10 1 15 14 15 27 0 25 16 -2 25 -22 7
-21 8 7 15 25 6 27 8 12 15 -14 6 -15 10 -6 21 18 22 -13 16 -33 -7z"/>
<path d="M185 1786 c2 -24 6 -49 9 -55 10 -15 43 -14 53 2 13 20 10 97 -4 97
-9 0 -13 -15 -13 -45 0 -25 -4 -45 -10 -45 -5 0 -10 20 -10 45 0 31 -4 45 -13
45 -10 0 -13 -13 -12 -44z"/>
<path d="M270 1774 c0 -40 3 -54 13 -51 6 2 11 15 9 28 -2 23 -2 23 13 -3 25
-44 40 -35 39 24 0 54 -24 84 -24 31 l-1 -28 -15 28 c-23 42 -34 32 -34 -29z"/>
<path d="M360 1775 c0 -30 4 -55 9 -55 13 0 17 26 13 72 -6 58 -22 45 -22 -17z"/>
<path d="M393 1816 c3 -8 11 -33 17 -55 15 -57 36 -52 49 10 11 49 9 70 -5 56
-4 -3 -10 -21 -14 -39 l-7 -33 -8 38 c-4 23 -13 37 -22 37 -9 0 -13 -6 -10
-14z"/>
<path d="M481 1775 l0 -55 34 0 c19 0 35 5 35 10 0 6 -11 10 -25 10 -18 0 -23
4 -19 15 4 8 12 15 20 15 23 0 16 18 -8 23 -22 3 -22 4 5 15 36 15 34 22 -7
22 l-34 0 -1 -55z"/>
<path d="M559 1820 c-1 -5 -1 -21 -1 -35 0 -52 2 -65 12 -65 6 0 10 9 10 20 0
11 5 20 10 20 9 0 14 -14 11 -32 0 -5 5 -8 13 -8 14 0 16 75 2 98 -9 14 -56
16 -57 2z m41 -25 c0 -8 -4 -15 -10 -15 -5 0 -10 7 -10 15 0 8 5 15 10 15 6 0
10 -7 10 -15z"/>
<path d="M647 1823 c-14 -14 -6 -38 21 -60 20 -17 23 -22 10 -23 -9 0 -18 6
-21 13 -2 6 -8 9 -12 5 -16 -15 5 -39 32 -36 39 4 42 35 6 64 l-28 24 28 -6
c22 -5 26 -3 21 10 -6 16 -44 22 -57 9z"/>
<path d="M720 1773 c0 -39 4 -53 14 -53 10 0 13 12 11 45 -2 48 3 59 24 46 8
-5 11 -23 8 -49 -3 -31 0 -42 10 -42 9 0 13 14 13 45 0 25 5 45 10 45 6 0 10
5 10 10 0 6 -22 10 -50 9 l-50 -2 0 -54z"/>
<path d="M2118 1745 c-32 -25 -76 -68 -99 -97 -22 -29 -50 -64 -62 -78 -37
-44 -87 -133 -103 -185 -37 -120 -14 -351 51 -504 53 -128 164 -258 263 -310
35 -18 26 2 -10 24 -51 29 -137 114 -179 177 -39 57 -101 199 -92 208 3 3 8 0
10 -7 2 -6 19 -31 37 -55 17 -24 45 -65 61 -92 15 -28 46 -70 69 -94 45 -49
126 -109 126 -93 0 6 -13 17 -28 25 -31 16 -134 123 -153 158 -10 19 -8 18 22
-5 38 -28 131 -77 148 -77 27 0 6 22 -47 49 -65 33 -160 113 -172 146 -5 12
-11 46 -15 76 l-6 54 30 -51 c16 -28 52 -76 80 -106 51 -55 127 -115 136 -106
3 3 -13 18 -35 33 -65 45 -146 139 -180 209 -35 70 -35 98 -5 191 l13 40 1
-42 c1 -53 32 -150 64 -206 31 -53 139 -155 145 -137 3 7 -1 16 -8 20 -9 6 -9
9 1 13 10 3 -1 20 -34 53 -26 26 -62 77 -80 113 -29 60 -32 74 -32 156 1 107
23 167 82 221 21 18 34 34 29 34 -6 0 3 13 19 30 16 16 26 32 24 35 -10 9 -67
-40 -98 -85 -57 -80 -63 -86 -39 -40 13 25 50 71 82 103 65 64 69 87 7 38 -44
-35 -90 -90 -114 -136 -14 -29 -87 -237 -91 -262 -5 -27 -14 -22 -20 12 -12
64 -4 188 17 260 18 59 30 79 77 126 34 34 80 67 118 85 34 16 62 35 62 43 0
18 -37 8 -102 -30 l-53 -30 50 48 c28 26 64 58 80 70 17 12 26 22 20 22 -5 1
-36 -19 -67 -44z m-209 -330 c-16 -57 -14 -190 3 -260 9 -33 16 -84 17 -114 1
-30 4 -60 7 -65 3 -6 -2 -2 -10 8 -9 11 -26 45 -38 75 -33 83 -32 262 1 344
26 65 36 71 20 12z m108 -87 c-3 -8 -6 -5 -6 6 -1 11 2 17 5 13 3 -3 4 -12 1
-19z m-10 -95 c-2 -16 -4 -3 -4 27 0 30 2 43 4 28 2 -16 2 -40 0 -55z"/>
<path d="M283 1703 c-8 -3 -13 -24 -13 -59 0 -54 0 -54 31 -54 20 0 29 4 26
13 -2 6 -11 11 -21 9 -9 -2 -16 4 -16 13 0 8 9 15 20 15 11 0 20 5 20 10 0 6
-9 10 -20 10 -11 0 -20 5 -20 10 0 6 9 10 20 10 11 0 20 4 20 9 0 11 -30 19
-47 14z"/>
<path d="M379 1686 c-4 -92 -2 -98 29 -94 15 2 25 8 22 13 -2 6 -10 9 -17 7
-9 -2 -13 11 -13 42 0 47 -19 76 -21 32z"/>
<path d="M184 1648 c2 -45 5 -53 22 -56 24 -3 43 16 49 48 7 35 -12 60 -44 60
-27 0 -28 -1 -27 -52z m46 3 c0 -17 -4 -33 -10 -36 -6 -4 -10 8 -10 29 0 20 5
36 10 36 6 0 10 -13 10 -29z"/>
<path d="M436 1665 c7 -19 14 -44 14 -55 0 -34 15 -22 28 23 7 23 15 48 18 55
3 7 -1 12 -10 12 -9 0 -16 -8 -16 -17 -1 -17 -1 -17 -14 0 -23 31 -36 20 -20
-18z"/>
<path d="M509 1688 c-1 -7 -2 -26 -3 -41 -4 -45 34 -73 62 -45 13 13 16 56 6
82 -7 19 -64 22 -65 4z m44 -36 c-2 -38 -3 -42 -13 -42 -5 0 -10 16 -10 36 0
24 4 34 12 32 7 -3 12 -14 11 -26z"/>
<path d="M594 1648 c1 -30 6 -53 13 -55 8 -3 10 5 7 24 -4 27 -3 27 11 9 8
-11 15 -24 15 -29 0 -5 6 -7 13 -5 17 6 18 108 0 108 -7 0 -13 -10 -14 -22 l0
-23 -11 23 c-20 40 -35 26 -34 -30z"/>
<path d="M719 1581 c-20 -4 -46 -17 -59 -29 -13 -12 -29 -22 -36 -22 -7 0 -21
-13 -30 -30 l-18 -29 -95 3 c-112 4 -168 -10 -238 -57 -66 -46 -76 -48 -109
-26 -35 23 -44 24 -44 4 0 -17 42 -37 76 -37 12 0 47 12 78 27 31 15 59 25 62
22 3 -3 -4 -24 -16 -45 -23 -40 -47 -59 -85 -64 -24 -4 -48 -64 -35 -88 5 -9
11 -30 13 -46 l4 -29 356 -3 357 -2 0 35 c0 29 -6 39 -30 54 -17 10 -46 39
-66 65 l-37 46 48 49 c27 27 54 47 61 44 7 -2 20 7 29 20 16 24 15 27 -21 73
-58 77 -73 83 -165 65z m-151 -296 c3 -3 1 -19 -5 -35 -9 -24 -8 -33 4 -45 13
-13 11 -15 -11 -15 -14 0 -26 4 -26 8 0 4 -13 13 -30 19 -25 10 -30 17 -30 46
0 20 6 37 13 40 14 4 75 -8 85 -18z m-171 -7 c13 -12 23 -29 23 -39 0 -10 10
-25 22 -33 21 -15 15 -16 -87 -16 -114 1 -145 10 -145 44 0 10 8 16 24 16 31
0 88 19 106 36 20 19 30 18 57 -8z m363 -34 c14 -12 39 -30 55 -38 29 -15 27
-16 -68 -16 -74 0 -104 4 -123 16 -24 16 -24 17 -7 37 10 11 31 25 48 32 33
15 53 8 95 -31z"/>
<path d="M2160 1515 c-14 -16 -10 -18 14 -9 9 3 16 10 16 15 0 14 -16 11 -30
-6z"/>
<path d="M2147 1440 c-51 -56 -77 -111 -85 -184 -13 -106 23 -210 97 -280 l31
-30 0 33 c0 19 -10 46 -24 64 -13 18 -32 51 -41 75 -33 81 -7 221 50 279 13
12 22 83 11 83 -2 0 -20 -18 -39 -40z"/>
<path d="M2172 1368 c-51 -64 -59 -188 -16 -275 15 -32 29 -52 31 -46 2 6 -6
28 -18 49 -14 25 -24 63 -27 105 -4 56 -1 73 21 119 26 54 29 72 9 48z"/>
<path d="M2171 1289 c-14 -42 -13 -117 2 -153 11 -26 13 -17 13 77 0 59 -1
107 -2 107 -1 0 -7 -14 -13 -31z"/>
<path d="M189 1078 c0 -2 -3 -15 -5 -30 l-5 -28 361 0 360 0 0 30 0 29 -355 1
c-195 0 -355 -1 -356 -2z"/>
<path d="M185 943 l1 -28 358 -3 357 -2 -3 27 -3 28 -356 3 -356 2 2 -27z"/>
<path d="M182 702 c4 -155 5 -161 36 -224 113 -229 417 -275 585 -89 76 84 89
130 92 324 l2 147 -28 0 c-23 0 -29 -5 -30 -22 0 -13 -2 -81 -3 -153 -3 -148
-18 -195 -86 -264 -59 -60 -122 -85 -210 -85 -91 0 -149 23 -210 84 -72 72
-84 112 -88 288 l-4 152 -30 0 -30 0 4 -158z"/>
<path d="M291 724 c1 -164 13 -207 76 -269 96 -96 252 -94 350 4 55 55 65 89
70 252 l5 149 -31 0 c-17 0 -31 -3 -32 -7 0 -5 -1 -69 -3 -143 -2 -101 -6
-143 -18 -165 -60 -113 -219 -135 -305 -43 -43 46 -53 89 -53 228 l0 130 -30
0 -31 0 2 -136z"/>
<path d="M401 733 c0 -94 5 -137 16 -161 33 -69 115 -97 185 -61 60 31 71 64
73 217 l1 132 -28 0 c-15 0 -28 -6 -29 -12 0 -7 -1 -66 -2 -130 -2 -104 -4
-120 -23 -138 -34 -34 -71 -35 -104 -2 -27 28 -29 34 -29 113 1 177 3 169 -30
169 l-30 0 0 -127z"/>
</g>
</svg>
